<svg id="Layer_1" xmlns="http://www.w3.org/2000/svg" viewBox="0 0 52.5 52.5"><style>.st0{fill:#77bb1f}</style><path class="st0" d="M26.3 52.5C11.8 52.5 0 40.7 0 26.2S11.8 0 26.3 0s26.3 11.8 26.3 26.3-11.9 26.2-26.3 26.2zm0-50C13.2 2.5 2.5 13.2 2.5 26.2S13.2 50 26.3 50 50 39.3 50 26.2 39.3 2.5 26.3 2.5z"/><path class="st0" d="M20.1 21.9S14 8.7 37 11.5c0 0 .3 17.9-12.3 14.2 0 0-1.9 1.5-3.1 3.5 0 0 2.2-.2 5.4.2 0 0-8.2 4.7-10.7 12h-.5s2.3-6.1 5-9.6c0 0-1.6-.1-5.4.5 0 0 4.1-9.2 15-16 .1 0-3.4-.4-10.3 5.6z"/></svg>